<svg version="1.2" xmlns="http://www.w3.org/2000/svg" viewBox="0 0 1535 345" width="1535" height="345">
	<title>ferro-svg</title>
	<style>
		.s0 { fill: #ffc700 } 
	</style>
	<path id="Layer" fill-rule="evenodd" class="s0" d="m13.1 162.5c-9.4 0-13.1-4.3-13.1-13.9v-17.7c0-7.6 3.7-12.9 13.1-12.9h21.9v-13.3c0-66.9 23.8-103.7 83.5-103.7 22.9 0 37.3 1.4 42.4 6.2q0.7 0.7 1.3 1.4 0.5 0.8 0.9 1.7 0.3 0.8 0.5 1.7 0.2 1 0.1 1.9c-1.8 24.4-0.9 31.5-9.3 31.5-2.8 0-18.2-0.9-24.7-0.9-28.5 0-42 15.7-42 50.1v23.4h47.1c9.3 0 13.6 3.9 13.6 12.9v19.1c0 8.2-4.3 12.5-13.6 12.5h-47.1v163.8c0 9.1-3.7 13.4-12.6 13.4h-27.5c-8.9 0-12.6-4.3-12.6-13.4v-163.8c0 0-21.9 0-21.9 0zm138.1 66.4c0-78.9 37.3-115.2 98.4-115.2 65.3 0 93.3 38.3 93.3 106.6 0 21.9-4.2 30.5-18.7 30.5h-118.5c0 31.6 11.2 50.2 58.3 50.2 36 0 50-9.6 56.9-9.6 6.6 0 14.5 23.9 14.5 28.7 0 14.8-43.4 23.9-72.8 23.9-84.4 0-111.4-37.7-111.4-115.1zm139.4-22.5c0-32.5-14.4-49.2-40.6-49.2-27 0-44.3 13.4-44.3 54.9h84.9zm127.4 133.3h-27.6c-9.3 0-12.5-4.3-12.5-13.3v-181.6c0 0 34.5-31 89.5-31 21.5 0 34.6 1.9 34.6 10 0 2.9-2.8 17.7-3.8 23.4-0.9 6.2-2.3 11.5-8.4 11.5-4.7 0-9.3-1.5-20-1.5-24.3 0-39.2 10.6-39.2 10.6v158.6c0 9-3.8 13.3-12.6 13.3zm146.1 0h-27.5c-9.3 0-12.6-4.3-12.6-13.3v-181.6c0 0 34.5-31 89.6-31 21.4 0 34.5 1.9 34.5 10 0 2.9-2.8 17.7-3.7 23.4-1 6.2-2.4 11.5-8.4 11.5-4.7 0-9.4-1.5-20.1-1.5-24.2 0-39.2 10.6-39.2 10.6v158.6c0 9-3.7 13.3-12.6 13.3zm192.7-225.9c66.7 0 101.7 31.5 101.7 115.1 0 83.6-35 115.1-101.7 115.1-66.7 0-101.7-31.5-101.7-115.1 0-83.6 35-115.1 101.7-115.1zm0 43.5c-35.9 0-47.1 16.7-47.1 71.6 0 55.4 11.2 72.2 47.1 72.2 35.9 0 47.1-16.8 47.1-72.2 0-54.9-11.2-71.6-47.1-71.6zm201.3 182.4c-7.5 0-11.7-1.9-15.4-10.9l-73.3-192.1c-0.9-1.9-2.8-6.7-2.8-10 0-4.8 3.3-8.6 10.3-8.6h32.7c11.1 0 14 5.2 16.8 13.8l44.7 139.1 46.2-139.1c3.3-9.5 5.6-13.8 15.9-13.8h29.8c6.6 0 9.4 5.2 9.4 8.1 0 2.9-1.9 7.2-2.8 9.6l-74.2 193c-3.3 8.6-5.6 10.9-13.5 10.9 0 0-23.8 0-23.8 0zm164.6-252.2c-17.5 0-31.7-14.3-31.7-32 0-17.7 14.2-32 31.7-32 17.6 0 31.8 14.3 31.8 32 0 17.7-14.2 32-31.8 32zm-14 30.6h27.6c8.8 0 12.6 4.8 12.6 13.8v194.5c0 9-3.8 13.3-12.6 13.3h-27.6c-8.8 0-12.5-4.3-12.5-13.3v-194.5c0-9 3.7-13.8 12.5-13.8zm302.8 192c0.9 5.8 2.8 18.2 2.8 20.6 0 5.7-5.6 13.3-32.6 13.3-36.4 0-42.5-30.1-42.5-30.1 0 0-21.5 30.1-70 30.1-59.2 0-87.7-38.7-87.7-112.7 0-79.3 33.6-117.5 102.2-117.5 60.6 0 93.3 23.9 93.3 23.9v143.3c0 13.4 4.2 20.5 16.8 20.5 2.8 0 8.4-0.5 10.2-0.5 5.2 0 6.6 2.4 7.5 9.1zm-87.7-144.7c0 0-14.9-8.1-39.2-8.1-42 0-48.5 24.3-48.5 74 0 39.2 6.1 69.8 42.4 69.8 22.9 0 37.8-10.6 45.3-23.9 0 0 0-111.8 0-111.8zm161.4 90.7c0 29.2 2.3 45.4 26.1 45.4 5.6 0 9.8-0.4 12.2-0.4 5.1 0 7.4 0.9 8.4 8.5 0 0 2.8 19.6 2.8 21.1 0 9.5-12.6 13.3-34.6 13.3-60.1 0-68.1-38.6-68.1-87.8v-230.3c0-7.7 0.9-12 10.8-15.3 31.2-9.6 34-9.6 35.9-9.6 5.1 0 6.5 1.9 6.5 9.1 0 0 0 246 0 246z"/>
</svg>