<svg version="1.2" xmlns="http://www.w3.org/2000/svg" viewBox="0 0 1570 368" width="1570" height="368">
	<title>helvetia-logo-color-pos-170px-svg</title>
	<style>
		.s0 { fill: #181716 } 
		.s1 { fill: #563b6c } 
		.s2 { fill: #71518c } 
		.s3 { fill: #8761a8 } 
		.s4 { fill: #118289 } 
		.s5 { fill: #46a8b3 } 
		.s6 { fill: #9f1717 } 
		.s7 { fill: #c21924 } 
	</style>
	<g id="Layer">
		<path id="Layer" fill-rule="evenodd" class="s0" d="m55.6 87.6v92.8h0.6c12.8-17.1 28.4-25 50.1-25 39.6 0 58.9 26.2 58.9 65.9v95.7h-55.6v-80.2c0-18.3-2.7-37.2-25-37.2-22 0-29 18.9-29 37.2v80.2h-55.6v-229.4zm181.1 160.5c0 22.6 11.9 34.8 34.8 34.8 11.9 0 20.4-4 26.5-14.4h53.5c-8.9 36.9-44 53.7-79.7 53.7-51.9 0-90.7-29.3-90.7-83.2 0-52.2 35.7-83.6 86.7-83.6 54.3 0 85.8 33.5 85.8 86.9 0 0 0 5.8 0 5.8zm65.3-32c-2.7-15-16.5-24.7-31.4-24.7-16.2 0-29.6 8.5-33 24.7zm67.8-128.5h55.5v229.4h-55.5zm160.9 153.2l37.3-80.3h62.3l-81.8 156.5h-35.5l-82.1-156.5h62.3zm258.3 7.4h-116.9c0 22.5 11.9 34.7 34.8 34.7 11.9 0 20.5-4 26.6-14.3h53.4c-8.9 36.9-44 53.7-79.7 53.7-51.9 0-90.7-29.3-90.7-83.3 0-52.2 35.8-83.6 86.7-83.6 54.4 0 85.8 33.6 85.8 87 0 0 0 5.8 0 5.8zm-51.6-32.1c-2.7-14.9-16.5-24.7-31.4-24.7-16.2 0-29.6 8.6-33 24.7zm133.6 101h-55.6v-110.7h-18v-45.8h18v-47h55.6v47h31.4v45.8h-31.4zm69.7-174.8c-17.2 0-31.1-13.9-31.1-31.1 0-17.2 13.9-31.1 31.1-31.1 17.3 0 31.2 13.9 31.2 31.1 0 17.2-13.9 31.1-31.2 31.1zm-27.8 18.3h55.6v156.5h-55.6zm254.4 156.5h-55.6v-17.4h-0.6c-9.8 15.5-29 22.5-47.3 22.5-46.4 0-79.1-38.7-79.1-83.5 0-44.9 32.1-83.3 78.5-83.3 18 0 36.9 6.7 48.5 20.4v-15.2h55.6c0 0 0 156.5 0 156.5zm-53.8-78.3c0-19.5-15.9-35.2-35.7-35.2-19.7 0-35.7 15.7-35.7 35.2 0 19.5 16 35.2 35.7 35.2 19.8 0 35.7-15.7 35.7-35.2z"/>
		<g id="Layer">
			<g id="Layer">
				<g id="Layer">
					<path id="Layer" class="s1" d="m1365.3 251.3l-71.3 18.3 55.4-128 71.5-17z"/>
				</g>
			</g>
			<g id="Layer">
				<path id="Layer" class="s2" d="m1345.8 15.7l71.9-15.7 28.9 66.2-71.7 16.5z"/>
			</g>
			<g id="Layer">
				<path id="Layer" class="s3" d="m1241 260.5l104.8-244.8 29.1 67-80.9 186.9z"/>
			</g>
		</g>
		<g id="Layer">
			<path id="Layer" class="s4" d="m1294 269.6l71.3-18.3 119.5 19.9-71.2 18.8z"/>
			<g id="Layer">
				<path id="Layer" class="s5" d="m1442.9 357.6l-226-40.6 24.1-56.5 172.6 29.5z"/>
			</g>
		</g>
		<g id="Layer">
			<g id="Layer">
				<path id="Layer" class="s6" d="m1374.9 82.7l71.7-16.5 122.8 281.5-70.7 19.9z"/>
			</g>
			<g id="Layer">
				<path id="Layer" class="s7" d="m1349.4 141.6l25.5-58.9 123.8 284.9-55.8-10z"/>
			</g>
		</g>
	</g>
</svg>