<svg xmlns="http://www.w3.org/2000/svg" xmlns:xlink="http://www.w3.org/1999/xlink" id="logo_itc_64" width="234.771" height="64" viewBox="0 0 234.771 64"><defs><clipPath id="clip-path"><rect id="Rect&#xE1;ngulo_814" data-name="Rect&#xE1;ngulo 814" width="234.77" height="63.999" fill="none"></rect></clipPath></defs><rect id="Rect&#xE1;ngulo_812" data-name="Rect&#xE1;ngulo 812" width="7.296" height="36.606" transform="translate(91.461 14.311)" fill="#008ab0"></rect><path id="Trazado_2114" data-name="Trazado 2114" d="M82.809,0V50.916h58.815V43.621H90.433V21.67h36.935V14.31H90.433V0Z" transform="translate(23.314 0.001)" fill="#1c1f21"></path><path id="Trazado_2115" data-name="Trazado 2115" d="M192.681,47.772H134.194V11.166h58.487v7.36H141.49V40.477h51.191Z" transform="translate(37.781 3.145)" fill="#008ab0"></path><rect id="Rect&#xE1;ngulo_813" data-name="Rect&#xE1;ngulo 813" width="7.296" height="7.432" transform="translate(91.461)" fill="#008ab0"></rect><g id="Grupo_3316" data-name="Grupo 3316" transform="translate(0 0.001)"><g id="Grupo_3315" data-name="Grupo 3315" transform="translate(0 0)" clip-path="url(#clip-path)"><path id="Trazado_2116" data-name="Trazado 2116" d="M71.654,45.817h.636V49.63h-.636Zm2.54,1.308c.015.088.029.185.037.281s.008.185.008.281V49.63h-.547V46.5h.451l2.3,2.048a1.512,1.512,0,0,1,.192.192,1.536,1.536,0,0,1,.185.236c-.015-.1-.029-.185-.037-.281s-.014-.2-.014-.3V46.5h.546V49.63h-.406l-2.343-2.077c-.082-.074-.155-.147-.215-.214a2.181,2.181,0,0,1-.155-.214m7.023-.163h-2.2v.813h2.011a.87.87,0,0,1,.6.155.793.793,0,0,1,.163.584v.377a.825.825,0,0,1-.156.584.894.894,0,0,1-.6.155H79.124a.887.887,0,0,1-.606-.155.793.793,0,0,1-.161-.584V48.8l.54-.111v.466H81.26v-.88H79.243a.852.852,0,0,1-.6-.155.785.785,0,0,1-.163-.583v-.3a.808.808,0,0,1,.163-.592.859.859,0,0,1,.6-.155h1.744a.886.886,0,0,1,.6.155.683.683,0,0,1,.17.533v.073l-.54.119Zm3.141,0V49.63h-.592V46.962H82.288V46.5h3.555v.466ZM87,49.63H86.4V46.5H87Zm2.63-2.668V49.63h-.592V46.962H87.555V46.5H91.11v.466Zm2.652-.466v2.662h2.291V46.5h.6v2.4a.793.793,0,0,1-.163.584.887.887,0,0,1-.606.155H92.455a.885.885,0,0,1-.606-.155.787.787,0,0,1-.163-.584V46.5Zm5.536.466V49.63h-.591V46.962H95.743V46.5H99.3v.466Zm1.988.281a.808.808,0,0,1,.163-.592.9.9,0,0,1,.606-.155h2.262a.9.9,0,0,1,.606.155.814.814,0,0,1,.163.592v1.648a.793.793,0,0,1-.163.584.885.885,0,0,1-.606.155h-2.262a.908.908,0,0,1-.614-.155.826.826,0,0,1-.155-.584Zm.591,1.915h2.617v-2.2h-2.617Zm8.47-2.825v3.3h-.636v-3.3h-1.744v-.516h4.132v.516Zm2.113,3.3V46.5h3.156v.466h-2.566v.8h1.546v.466h-1.546v.938h2.6v.459Zm6.688-2.668h-2.188v2.2h2.188V48.41l.592.111v.369a.793.793,0,0,1-.163.584.885.885,0,0,1-.606.155h-1.84a.923.923,0,0,1-.606-.149.829.829,0,0,1-.155-.591V47.243a.835.835,0,0,1,.155-.592.9.9,0,0,1,.606-.155h1.84a.885.885,0,0,1,.606.155.814.814,0,0,1,.163.592v.3l-.592.095Zm2.04.163c.014.088.029.185.037.281s.006.185.006.281V49.63H119.2V46.5h.45l2.3,2.048a1.513,1.513,0,0,1,.192.192,1.535,1.535,0,0,1,.185.236c-.014-.1-.029-.185-.037-.281s-.014-.2-.014-.3V46.5h.547V49.63h-.406l-2.344-2.077c-.081-.074-.155-.147-.214-.214a1.989,1.989,0,0,1-.155-.214m4.183.118a.814.814,0,0,1,.163-.592.9.9,0,0,1,.606-.155h2.262a.9.9,0,0,1,.606.155.808.808,0,0,1,.163.592v1.648a.787.787,0,0,1-.163.584.885.885,0,0,1-.606.155h-2.262a.911.911,0,0,1-.614-.155.832.832,0,0,1-.155-.584Zm.592,1.915h2.617v-2.2h-2.617Zm4.273.473V46.5h.591v2.662h2.439v.473Zm3.569-2.388a.808.808,0,0,1,.163-.592.9.9,0,0,1,.606-.155h2.261a.9.9,0,0,1,.606.155.808.808,0,0,1,.163.592v1.648a.787.787,0,0,1-.163.584.882.882,0,0,1-.606.155h-2.261a.906.906,0,0,1-.614-.155.826.826,0,0,1-.155-.584Zm.591,1.915h2.617v-2.2H132.91Zm.814-3.06.754-1.257h.643L134.107,46.1Zm6.453.865H137.7v2.2h2.476v-.851H138.9v-.428h1.87v1.012a.787.787,0,0,1-.163.584.882.882,0,0,1-.606.155h-2.121a.884.884,0,0,1-.606-.155.792.792,0,0,1-.163-.584V47.243a.814.814,0,0,1,.163-.592.9.9,0,0,1,.606-.155H140a.91.91,0,0,1,.606.155.732.732,0,0,1,.163.547v.088l-.591.1Zm2.166,2.668h-.591V46.5h.591Zm3.825-2.668H143.98v2.2h2.188V48.41l.592.111v.369a.787.787,0,0,1-.163.584.884.884,0,0,1-.606.155h-1.84a.925.925,0,0,1-.606-.149.829.829,0,0,1-.155-.591V47.243a.835.835,0,0,1,.155-.592.9.9,0,0,1,.606-.155h1.84a.884.884,0,0,1,.606.155.808.808,0,0,1,.163.592v.3l-.592.095Zm1.464.281a.814.814,0,0,1,.163-.592.9.9,0,0,1,.606-.155h2.262a.9.9,0,0,1,.606.155.814.814,0,0,1,.163.592v1.648a.793.793,0,0,1-.163.584.884.884,0,0,1-.606.155H148.4a.911.911,0,0,1-.614-.155.832.832,0,0,1-.155-.584Zm.592,1.915h2.617v-2.2h-2.617Zm8.771-2.662a4.455,4.455,0,0,1,.755.059,1.473,1.473,0,0,1,.5.186,1.434,1.434,0,0,1,.5.546,1.672,1.672,0,0,1,.178.769,1.444,1.444,0,0,1-.481,1.183,2.284,2.284,0,0,1-1.457.392h-1.8V46.5Zm-.065.466h-1.146v2.2h1.146a1.776,1.776,0,0,0,1.085-.259,1.03,1.03,0,0,0,.326-.851,1,1,0,0,0-.326-.834,1.789,1.789,0,0,0-1.085-.251m3.1,2.668V46.5h3.156v.466h-2.564v.8h1.544v.466h-1.544v.938h2.594v.459Zm3.984,0V46.5h.591v2.662h2.44v.473Zm9.591-3.3h-2.646V49.1H173.6v-.955l.636.133v.451a1.035,1.035,0,0,1-.185.718.976.976,0,0,1-.7.185h-2.136a.731.731,0,0,1-.895-.9V46.717a.731.731,0,0,1,.895-.9h2.136a.976.976,0,0,1,.7.185,1.018,1.018,0,0,1,.185.716v.363l-.636.118Zm1.228,3.3,1.811-3.135h.54l1.856,3.135h-.643l-.406-.732h-2.166l-.4.732Zm1.242-1.183h1.663l-.836-1.493Zm4.095-1.323c.014.088.029.185.037.281s.008.185.008.281V49.63h-.547V46.5h.451l2.3,2.048a1.514,1.514,0,0,1,.192.192,1.536,1.536,0,0,1,.185.236c-.014-.1-.029-.185-.036-.281s-.015-.2-.015-.3V46.5h.547V49.63h-.406l-2.344-2.077c-.081-.074-.155-.147-.214-.214a2.181,2.181,0,0,1-.155-.214m5.766-.163V49.63h-.592V46.962H183.86V46.5h3.555v.466Zm1.551,2.668,1.811-3.135h.54l1.856,3.135h-.643l-.406-.732h-2.166l-.4.732Zm1.242-1.183h1.663l-.836-1.493Zm.37-2.35.754-1.257h.643L189.477,46.1Zm3.222,3.533V46.5h2.646a.778.778,0,0,1,.524.149.582.582,0,0,1,.163.465v.363a.511.511,0,0,1-.132.377.663.663,0,0,1-.414.163.616.616,0,0,1,.42.185.6.6,0,0,1,.149.422v.4a.51.51,0,0,1-.222.459,1.258,1.258,0,0,1-.688.155Zm2.742-2.122v-.295a.227.227,0,0,0-.074-.2.425.425,0,0,0-.259-.059h-1.818v.806h1.818a.448.448,0,0,0,.267-.053.249.249,0,0,0,.067-.2m-2.152.71v.953h1.818a.3.3,0,0,0,.355-.355v-.243a.3.3,0,0,0-.355-.355Zm3.77,1.412V46.5H199.2a.731.731,0,0,1,.5.141.608.608,0,0,1,.155.465v.7a.592.592,0,0,1-.155.459.731.731,0,0,1-.5.14h-.414l1.382,1.228h-.791l-1.25-1.228h-.857V49.63Zm2.262-2.676h-1.671v1.012h1.671a.378.378,0,0,0,.265-.067.349.349,0,0,0,.067-.251v-.377a.311.311,0,0,0-.073-.243.336.336,0,0,0-.259-.074m2.535,2.676h-.591V46.5h.591Zm3.827-2.668H203.11v2.2H205.3V48.41l.591.111v.369a.787.787,0,0,1-.163.584.884.884,0,0,1-.606.155h-1.84a.925.925,0,0,1-.606-.149.829.829,0,0,1-.155-.591V47.243a.835.835,0,0,1,.155-.592.9.9,0,0,1,.606-.155h1.84a.884.884,0,0,1,.606.155.808.808,0,0,1,.163.592v.3l-.591.095Zm1.462.281a.814.814,0,0,1,.163-.592.9.9,0,0,1,.606-.155h2.262a.9.9,0,0,1,.606.155.808.808,0,0,1,.163.592v1.648a.787.787,0,0,1-.163.584.884.884,0,0,1-.606.155H207.53a.911.911,0,0,1-.614-.155.832.832,0,0,1-.155-.584Zm.592,1.915h2.617v-2.2h-2.617Zm7.243,2.217h-3.7v-.363h3.7Z" transform="translate(20.173 12.624)" fill="#1c1f21"></path><path id="Trazado_2117" data-name="Trazado 2117" d="M18.86,25.315A24.311,24.311,0,1,1,43.172,49.623,24.311,24.311,0,0,1,18.86,25.315" transform="translate(5.31 0.282)" fill="#008ab0"></path><path id="Trazado_2118" data-name="Trazado 2118" d="M0,36.654A21.821,21.821,0,1,1,21.821,58.474,21.82,21.82,0,0,1,0,36.654" transform="translate(0 4.176)" fill="#1c1f21"></path><path id="Trazado_2119" data-name="Trazado 2119" d="M43.432,2.447A23.128,23.128,0,1,0,66.56,25.575,23.127,23.127,0,0,0,43.432,2.447m0-2.366A25.492,25.492,0,1,1,17.937,25.575,25.494,25.494,0,0,1,43.432.081" transform="translate(5.05 0.023)" fill="#008ab0"></path></g></g></svg>